<?xml version="1.0" encoding="iso-8859-1"?>
<!-- Generator: Adobe Illustrator 19.0.0, SVG Export Plug-In . SVG Version: 6.00 Build 0)  -->
<svg version="1.1" id="Capa_1" xmlns="http://www.w3.org/2000/svg" xmlns:xlink="http://www.w3.org/1999/xlink" x="0px" y="0px"
	 viewBox="0 0 512 512" style="enable-background:new 0 0 512 512;" xml:space="preserve">
<g>
	<g>
		<path d="M197.964,32.041h-71.987c-5.521,0-9.998,4.476-9.998,9.998c0,5.522,4.477,9.998,9.998,9.998h71.987
			c5.521,0,9.998-4.476,9.998-9.998C207.962,36.517,203.485,32.041,197.964,32.041z"/>
	</g>
</g>
<g>
	<g>
		<path d="M169.038,456.653c-1.859-1.861-4.438-2.93-7.068-2.93s-5.209,1.07-7.069,2.93c-1.86,1.86-2.929,4.439-2.929,7.069
			c0,2.63,1.069,5.209,2.929,7.069c1.86,1.86,4.439,2.929,7.069,2.929s5.209-1.07,7.068-2.929c1.86-1.86,2.93-4.439,2.93-7.069
			C171.968,461.082,170.899,458.512,169.038,456.653z"/>
	</g>
</g>
<g>
	<g>
		<path d="M447.633,317.864l-36.785-63.713c15.083-13.975,19.107-37.036,8.401-55.579c-6.019-10.424-15.735-17.881-27.363-20.996
			c-8.333-2.234-16.933-2.031-24.976,0.473l-36.778-63.701c-1.661-2.876-4.642-4.741-7.956-4.974
			c-3.316-0.237-6.527,1.195-8.574,3.809L199.094,259.411l-48.056,27.745c-27.422,15.831-36.85,51.021-21.018,78.443
			c7.67,13.284,20.052,22.786,34.869,26.755c4.947,1.326,9.967,1.982,14.955,1.982c9.95,0,19.77-2.609,28.619-7.719l5.723-3.304
			l19.961,34.573H19.996V84.031h283.948v2.999c0,5.522,4.477,9.998,9.998,9.998s9.998-4.476,9.998-9.998V39.3
			c0-21.644-17.609-39.254-39.254-39.254H39.254C17.609,0.046,0,17.655,0,39.3V472.7c0,21.644,17.609,39.254,39.254,39.254h245.434
			c21.644,0,39.254-17.609,39.254-39.254V349.312l116.44-16.551c3.288-0.467,6.13-2.536,7.583-5.523
			C449.417,324.253,449.294,320.74,447.633,317.864z M19.996,39.3c0-10.619,8.639-19.257,19.257-19.257h245.434
			c10.618,0,19.257,8.638,19.257,19.257v24.734H19.996V39.3z M386.711,196.891c6.468,1.733,11.873,5.881,15.221,11.68
			c5.134,8.893,4.178,19.656-1.56,27.437l-22.988-39.817C380.469,195.84,383.622,196.063,386.711,196.891z M198.465,369.3
			c-8.658,4.999-18.747,6.326-28.401,3.739c-9.656-2.588-17.727-8.78-22.726-17.439c-10.318-17.873-4.173-40.809,13.699-51.128
			l41.076-23.715l37.424,64.829L198.465,369.3z M231.504,373.315l18.031-10.41l23.621,40.911l-18.031,10.41L231.504,373.315z
			 M303.944,472.699c0,10.619-8.639,19.257-19.257,19.257H39.254c-10.618,0-19.257-8.638-19.257-19.257v-34.817h283.948V472.699z
			 M303.944,417.886h-15.167l3.033-1.752c4.782-2.76,6.421-8.875,3.659-13.658l-26.207-45.393l34.682-4.93V417.886z
			 M258.492,338.417l-40.686-70.469l72.718-92.862l84.719,146.736L258.492,338.417z M396.581,318.789l-92.766-160.676l16.403-20.946
			l102.698,177.878L396.581,318.789z"/>
	</g>
</g>
<g>
	<g>
		<path d="M510.658,146.14c-2.761-4.781-8.874-6.421-13.657-3.659l-49.023,28.304c-4.782,2.76-6.421,8.875-3.659,13.657
			c1.853,3.207,5.212,5,8.668,5c1.696,0,3.415-0.432,4.989-1.341l49.023-28.304C511.781,157.037,513.42,150.922,510.658,146.14z"/>
	</g>
</g>
<g>
	<g>
		<path d="M420.164,102.243c-5.335-1.43-10.815,1.737-12.245,7.07l-7.147,26.674c-1.43,5.335,1.736,10.817,7.07,12.246
			c0.867,0.232,1.737,0.343,2.594,0.343c4.414,0,8.454-2.946,9.651-7.413l7.147-26.674
			C428.663,109.154,425.498,103.672,420.164,102.243z"/>
	</g>
</g>
<g>
	<g>
		<path d="M496.524,233.037l-27.566-7.387c-5.335-1.43-10.815,1.737-12.245,7.07c-1.43,5.334,1.736,10.816,7.07,12.246l27.566,7.387
			c0.867,0.232,1.737,0.343,2.594,0.343c4.414,0,8.454-2.946,9.651-7.413C505.023,239.948,501.858,234.465,496.524,233.037z"/>
	</g>
</g>
<g>
	<g>
		<path d="M189.632,113.194H51.669c-5.521,0-9.998,4.476-9.998,9.998s4.477,9.998,9.998,9.998h137.964
			c5.521,0,9.998-4.476,9.998-9.998S195.153,113.194,189.632,113.194z"/>
	</g>
</g>
<g>
	<g>
		<path d="M196.704,164.116c-1.86-1.87-4.439-2.93-7.069-2.93c-2.64,0-5.209,1.06-7.069,2.93c-1.87,1.86-2.929,4.439-2.929,7.069
			c0,2.63,1.06,5.209,2.929,7.069c1.86,1.859,4.429,2.929,7.069,2.929c2.63,0,5.209-1.07,7.069-2.929
			c1.859-1.86,2.929-4.439,2.929-7.069C199.633,168.555,198.564,165.976,196.704,164.116z"/>
	</g>
</g>
<g>
	<g>
		<path d="M148.306,161.185H51.669c-5.521,0-9.998,4.476-9.998,9.998s4.477,9.998,9.998,9.998h96.637
			c5.521,0,9.998-4.476,9.998-9.998S153.827,161.185,148.306,161.185z"/>
	</g>
</g>
<g>
	<g>
		<path d="M165.879,209.176H90.074c-5.521,0-9.998,4.476-9.998,9.998s4.476,9.998,9.998,9.998h75.804
			c5.521,0,9.998-4.476,9.998-9.998S171.4,209.176,165.879,209.176z"/>
	</g>
</g>
<g>
	<g>
		<path d="M52.049,209.176h-0.464c-5.521,0-9.998,4.476-9.998,9.998s4.477,9.998,9.998,9.998h0.464c5.521,0,9.998-4.476,9.998-9.998
			S57.57,209.176,52.049,209.176z"/>
	</g>
</g>
<g>
</g>
<g>
</g>
<g>
</g>
<g>
</g>
<g>
</g>
<g>
</g>
<g>
</g>
<g>
</g>
<g>
</g>
<g>
</g>
<g>
</g>
<g>
</g>
<g>
</g>
<g>
</g>
<g>
</g>
</svg>
