<?xml version="1.0" encoding="iso-8859-1"?>
<!-- Generator: Adobe Illustrator 19.0.0, SVG Export Plug-In . SVG Version: 6.00 Build 0)  -->
<svg version="1.1" id="Capa_1" xmlns="http://www.w3.org/2000/svg" xmlns:xlink="http://www.w3.org/1999/xlink" x="0px" y="0px"
	 viewBox="0 0 512.002 512.002" style="enable-background:new 0 0 512.002 512.002;" xml:space="preserve">
<g>
	<g>
		<path d="M473.351,252.738c25.276-10.564,41.115-36.476,38.336-64.285c-3.987-39.896-19.482-70.279-44.811-87.863
			c-25.851-17.946-63.474-30.292-111.826-36.697c-34.811-4.61-62.164-4.314-64.559-4.277c-2.393-0.035-29.748-0.334-64.559,4.277
			c-48.351,6.405-86.213,18.413-111.826,36.697c-46.013,32.846-45.216,95.485-44.911,99.213c-5.598,4.231-10.882,8.943-15.742,14.07
			c-9.851,10.391-17.644,22.161-23.224,35.03l-11.221,2.654c-4.031,0.954-6.526,4.994-5.573,9.025
			c0.954,4.031,4.995,6.526,9.025,5.573l28.899-6.834c8.684-1.766,11.486,6.382,8.57,10.546c-4.192-1.704-8.929-2.177-13.657-1.06
			l-28.898,6.834c-12.108,2.864-19.629,15.043-16.766,27.152c0.875,3.699,2.642,7.042,5.099,9.795
			c-2.419,4.754-3.088,10.138-1.851,15.366c1.304,5.515,4.585,10.198,9.051,13.309c-0.706,3.243-0.709,6.619,0.075,9.936
			c1.383,5.849,4.975,10.818,10.113,13.991c3.621,2.236,7.694,3.386,11.832,3.385c0.121,0,0.243-0.009,0.365-0.011
			c4.688,8.287,10.674,15.439,17.367,21.836c28.886,27.606,74.065,25.183,75.269,25.481c0.068,20.15,16.479,36.522,36.644,36.522
			h251.841c20.207,0,36.647-16.44,36.647-36.647v-0.099c25.836-6.809,44.946-30.369,44.946-58.314V339.06
			c0-26.098-6.47-52.075-18.709-75.124L473.351,252.738z M122.661,112.912c57.233-39.731,166.597-38.32,167.7-38.296l0.132,0.002
			l0.131-0.002c1.096-0.021,110.402-1.479,167.698,38.296c21.919,15.217,34.853,41.134,38.439,77.032
			c2.163,21.642-10.481,41.787-30.478,49.483l-21.321-40.152h27.625c4.142,0,7.5-3.358,7.5-7.5c0-4.142-3.358-7.5-7.5-7.5h-35.59
			l-12.21-22.995c-13.233-24.921-38.982-40.402-67.199-40.402H222.5c-28.216,0-53.966,15.481-67.199,40.402l-12.21,22.995H84.883
			C89.223,151.311,101.914,127.315,122.661,112.912z M135.125,199.275l-21.162,39.853c-16.646-6.742-28.049-22.248-29.748-39.853
			H135.125z M71.59,300.959c2.376-4.666,3.088-10.082,1.834-15.387c-0.471-1.99-1.197-3.853-2.13-5.57
			c7.584-7.981,3.532-19.33,3.412-19.736c4.512-8.132,10.033-14.443,14.921-19.018c5.03,4.581,10.84,8.382,17.276,11.176
			c0,0-21.091,30.651-24.313,74.199c-1.575-2.349-3.567-4.357-5.846-5.945C77.452,317.432,78.878,306.851,71.59,300.959z
			 M49.201,244.482c9.061-15.196,20.643-25.801,23.588-28.329c1.775,4.868,4.134,9.491,7.022,13.76
			c-5.735,5.282-10.714,11.158-14.888,17.571C60.167,244.555,54.634,243.524,49.201,244.482z M20.826,290.237l28.898-6.834
			c8.027-1.658,9.293,8.808,8.682,10.264c-6.894-1.608-40.546,7.934-41.839,8.514C15.926,301.348,12.423,292.313,20.826,290.237z
			 M20.835,328.425c-1.16-1.014-4.974-9.755,3.238-13.026l28.899-6.835c6.69-1.481,9.34,7.279,9.256,8.101
			C61.039,316.751,32.541,321.471,20.835,328.425z M36.68,353.365c-1.949,0.462-7.759,0.316-9.101-5.62
			c-1.341-5.937,3.67-8.641,5.62-9.102l28.898-6.834c0.583-0.138,7.466-1.166,9.102,5.62c0.978,4.054-1.561,8.142-5.62,9.102
			L36.68,353.365z M62.724,379.276c-4.478-4.051-8.419-8.7-11.803-13.865l15.825-3.742c1.866,2.338,3.874,4.522,6.042,6.483
			c3.621,3.277,7.807,6.098,12.462,8.43c2.492,7.379,6.371,14.12,11.332,19.915C83.069,393.164,71.729,387.423,62.724,379.276z
			 M416.412,437.401H164.571c-11.299,0-20.599-8.704-21.559-19.758h294.692C437.794,417.643,435.392,437.401,416.412,437.401z
			 M483.006,357.341h-0.001c0,24.979-20.322,45.302-45.302,45.302H142.385c-28.75,0-45.302-25.741-45.302-45.302v-18.283
			c0-23.653,5.863-47.198,16.957-68.089l54.509-102.653c10.624-20.008,31.297-32.438,53.951-32.438h135.088
			c22.654,0,43.327,12.429,53.951,32.438l14.345,27.014c0.006,0.011,0.012,0.023,0.018,0.034l40.147,75.605
			c11.093,20.891,16.957,44.436,16.957,68.089V357.341z"/>
	</g>
</g>
<g>
	<g>
		<path d="M385.596,319.15l-29.828-26.538c-14.556-11.391-25.566-2.415-29.233,1.706c-7.589,8.53-6.824,21.645,1.706,29.234
			l10.433,9.283c-14.111,10.141-31.082,15.662-48.63,15.662c-45.978,0-83.385-37.406-83.385-83.385s37.406-83.385,83.385-83.385
			s83.385,37.406,83.385,83.385c0,4.887-0.425,9.783-1.264,14.552c-0.717,4.08,2.008,7.968,6.088,8.686
			c4.08,0.717,7.968-2.008,8.686-6.087c0.989-5.625,1.491-11.395,1.491-17.15c0-54.25-44.135-98.385-98.385-98.385
			c-54.249,0-98.385,44.135-98.385,98.385s44.135,98.385,98.385,98.385c21.831,0,42.903-7.246,60.064-20.489l7.961,7.083
			c13.554,10.997,25.567,2.415,29.234-1.706C394.891,339.854,394.126,326.74,385.596,319.15z M376.096,338.414
			c-3.081,3.701-6.928,1.473-8.056,0.47l-29.828-26.538c-1.128-1.003-3.722-4.304-0.47-8.056c3.252-3.752,7.014-1.398,8.056-0.471
			l29.828,26.539C376.753,331.361,379.177,334.713,376.096,338.414z"/>
	</g>
</g>
<g>
	<g>
		<path d="M290.044,232.005c-18.256-0.001-33.107,14.852-33.107,33.107s14.852,33.107,33.107,33.107s33.108-14.852,33.108-33.107
			S308.3,232.005,290.044,232.005z M290.043,283.219c-9.984,0-18.107-8.123-18.107-18.107c0-9.984,8.123-18.107,18.107-18.107
			c9.985-0.001,18.108,8.123,18.108,18.107C308.151,275.096,300.028,283.219,290.043,283.219z"/>
	</g>
</g>
<g>
	<g>
		<circle cx="331.32" cy="223.839" r="7.5"/>
	</g>
</g>
<g>
	<g>
		<circle cx="290.04" cy="206.739" r="7.5"/>
	</g>
</g>
<g>
	<g>
		<circle cx="248.77" cy="223.839" r="7.5"/>
	</g>
</g>
<g>
	<g>
		<circle cx="231.67" cy="265.109" r="7.5"/>
	</g>
</g>
<g>
	<g>
		<circle cx="248.77" cy="306.389" r="7.5"/>
	</g>
</g>
<g>
	<g>
		<circle cx="290.04" cy="323.479" r="7.5"/>
	</g>
</g>
<g>
</g>
<g>
</g>
<g>
</g>
<g>
</g>
<g>
</g>
<g>
</g>
<g>
</g>
<g>
</g>
<g>
</g>
<g>
</g>
<g>
</g>
<g>
</g>
<g>
</g>
<g>
</g>
<g>
</g>
</svg>
