<?xml version="1.0" encoding="iso-8859-1"?>
<!-- Generator: Adobe Illustrator 19.0.0, SVG Export Plug-In . SVG Version: 6.00 Build 0)  -->
<svg version="1.1" id="Capa_1" xmlns="http://www.w3.org/2000/svg" xmlns:xlink="http://www.w3.org/1999/xlink" x="0px" y="0px"
	 viewBox="0 0 512 512" style="enable-background:new 0 0 512 512;" xml:space="preserve">
<g>
	<g>
		<path d="M147.451,28.49H90.654C75.35,28.49,62.9,40.941,62.9,56.245s12.45,27.753,27.753,27.753h56.797
			c15.304,0,27.753-12.45,27.753-27.753S162.754,28.49,147.451,28.49z M147.451,68.998H90.654c-7.033,0-12.754-5.722-12.754-12.754
			c0-7.033,5.722-12.755,12.754-12.755h56.797c7.033,0,12.754,5.722,12.754,12.755C160.204,63.276,154.483,68.998,147.451,68.998z"
			/>
	</g>
</g>
<g>
	<g>
		<path d="M169.332,123.223c-22.431,0.001-40.68,18.25-40.68,40.68c0,22.431,18.25,40.68,40.68,40.68s40.68-18.249,40.68-40.68
			S191.762,123.223,169.332,123.223z M169.331,189.585c-14.16,0-25.68-11.521-25.68-25.68c0.001-14.161,11.521-25.68,25.68-25.68
			s25.68,11.521,25.68,25.68S183.491,189.585,169.331,189.585z"/>
	</g>
</g>
<g>
	<g>
		<path d="M470.034,83.998c4.142,0,7.5-3.357,7.5-7.5V50.153c0-27.652-22.497-50.149-50.15-50.149H265.979
			c-0.052,0-0.102-0.004-0.154-0.004H72.838C51.68,0,34.466,17.214,34.466,38.372v322.103v33.741c0,4.143,3.358,7.5,7.5,7.5
			s7.5-3.357,7.5-7.5v-33.741V38.372C49.466,25.484,59.951,15,72.838,15c2.034,0,192.586-0.001,193.072,0.002
			c12.714,0,23.287,10.518,23.287,23.37c-0.043,455.757,0.109,435.335-0.12,437.592c-0.059,0.58-0.151,1.201-0.257,1.779
			c-0.007,0.039-0.014,0.079-0.021,0.118c-1.626,8.591-8.12,16.171-18.159,18.596c-3.973,0.835-5.759,0.366-20.294,0.501v-8.215
			c0-10.752-8.747-19.5-19.5-19.5h-10.835c-4.142,0-7.5,3.357-7.5,7.5s3.358,7.5,7.5,7.5h10.835c2.439,0,4.5,2.061,4.5,4.5v8.215
			h-132.03v-8.215c0-2.439,2.061-4.5,4.5-4.5h77.194c4.142,0,7.5-3.357,7.5-7.5s-3.358-7.5-7.5-7.5h-77.194
			c-10.752,0-19.5,8.748-19.5,19.5v8.215h-15.48c-12.888,0-23.372-10.485-23.372-23.372c0-4.523,0-40.099,0-44.368
			c0-4.143-3.358-7.5-7.5-7.5s-7.5,3.357-7.5,7.5c0,4.321,0,39.699,0,44.368c0,21.159,17.214,38.372,38.372,38.372
			c211.396,0,195.104,0.306,200.34-0.715h154.204c27.652,0,50.15-22.497,50.15-50.149V111.497c0-4.143-3.358-7.5-7.5-7.5
			c-4.143,0-7.5,3.357-7.5,7.5v349.595c0,19.382-15.769,35.149-35.15,35.149H296.804c2.732-3.732,4.718-7.94,5.888-12h124.691
			c12.766,0,23.15-10.385,23.15-23.149V50.153c0-12.766-10.386-23.149-23.15-23.149H302.476c-1.364-4.39-3.504-8.439-6.247-12
			h131.154c19.383,0,35.15,15.769,35.15,35.149v26.345C462.534,80.641,465.891,83.998,470.034,83.998z M304.196,42.003h123.187
			c4.495,0,8.151,3.656,8.151,8.15v410.939c0,4.494-3.656,8.15-8.151,8.15H304.196V42.003z"/>
	</g>
</g>
<g>
</g>
<g>
</g>
<g>
</g>
<g>
</g>
<g>
</g>
<g>
</g>
<g>
</g>
<g>
</g>
<g>
</g>
<g>
</g>
<g>
</g>
<g>
</g>
<g>
</g>
<g>
</g>
<g>
</g>
</svg>
