<?xml version="1.0" encoding="iso-8859-1"?>
<!-- Generator: Adobe Illustrator 19.0.0, SVG Export Plug-In . SVG Version: 6.00 Build 0)  -->
<svg version="1.1" id="Capa_1" xmlns="http://www.w3.org/2000/svg" xmlns:xlink="http://www.w3.org/1999/xlink" x="0px" y="0px"
	 viewBox="0 0 512 512" style="enable-background:new 0 0 512 512;" xml:space="preserve">
<g>
	<g>
		<g>
			<path d="M413,352.122c11.046,0,20-8.955,20-20V80c0-44.112-35.888-80-80-80H159c-44.112,0-80,35.888-80,80v352
				c0,44.112,35.888,80,80,80h194c44.112,0,80-35.888,80-80c0-11.046-8.954-20-20-20c-11.046,0-20,8.954-20,20
				c0,22.056-17.944,40-40,40H159c-22.056,0-40-17.944-40-40V80c0-22.056,17.944-40,40-40h194c22.056,0,40,17.944,40,40v252.122
				C393,343.167,401.954,352.122,413,352.122z"/>
			<circle cx="256" cy="421.122" r="20"/>
			<path d="M296,91.122c0-11.046-8.954-20-20-20h-40c-11.046,0-20,8.954-20,20c0,11.046,8.954,20,20,20h40
				C287.046,111.122,296,102.167,296,91.122z"/>
		</g>
	</g>
</g>
<g>
</g>
<g>
</g>
<g>
</g>
<g>
</g>
<g>
</g>
<g>
</g>
<g>
</g>
<g>
</g>
<g>
</g>
<g>
</g>
<g>
</g>
<g>
</g>
<g>
</g>
<g>
</g>
<g>
</g>
</svg>
