<?xml version="1.0" encoding="iso-8859-1"?>
<!-- Generator: Adobe Illustrator 19.0.0, SVG Export Plug-In . SVG Version: 6.00 Build 0)  -->
<svg version="1.1" id="Capa_1" xmlns="http://www.w3.org/2000/svg" xmlns:xlink="http://www.w3.org/1999/xlink" x="0px" y="0px"
	 viewBox="0 0 512 512" style="enable-background:new 0 0 512 512;" xml:space="preserve">
<g>
	<g>
		<path d="M359.687,408.901l-47.517-47.517c-13.709-13.709-36.018-13.708-49.725,0l-20.876,20.876
			c-47.68-24.968-86.862-64.15-111.83-111.83l20.877-20.877c13.708-13.709,13.708-36.016,0-49.725l-47.516-47.516
			c-13.709-13.709-36.016-13.709-49.725,0l-38.013,38.014C-4.5,210.187-5.121,245.2,13.613,288.913
			c16.888,39.406,47.884,82.803,87.277,122.196c39.393,39.393,82.79,70.389,122.196,87.277c21.187,9.08,40.328,13.613,56.692,13.613
			c17.399,0,31.66-5.126,41.895-15.361l38.013-38.013c6.642-6.641,10.299-15.471,10.299-24.863
			C369.986,424.372,366.328,415.542,359.687,408.901z M338.47,437.41l-38.013,38.013c-10.292,10.291-34.796,8.568-65.553-4.613
			c-35.981-15.421-76.041-44.157-112.8-80.916c-36.758-36.759-65.495-76.818-80.916-112.799
			c-13.18-30.755-14.906-55.261-4.613-65.553l38.013-38.013c2.012-2.011,5.284-2.011,7.295,0l47.516,47.516
			c2.011,2.011,2.011,5.284,0,7.294l-35.985,35.986l4.526,9.554c29.056,61.34,78.84,111.125,140.181,140.181l9.554,4.525
			L283.66,382.6c1.314-1.314,2.85-1.511,3.647-1.511s2.332,0.196,3.646,1.51l47.516,47.516c1.314,1.314,1.511,2.849,1.511,3.647
			C339.982,434.561,339.784,436.096,338.47,437.41z"/>
	</g>
</g>
<g>
	<g>
		<path d="M465.751,38.762C436.589,13.766,397.961,0,356.983,0c-40.977,0-79.606,13.766-108.768,38.762
			c-29.823,25.563-46.248,59.746-46.248,96.252c0,36.506,16.425,70.688,46.248,96.252c5.345,4.58,11.009,8.781,16.946,12.591
			c-10.962,16.517-23.777,31.698-38.191,45.203c31.44-2.6,61.251-10.932,88.404-23.927c13.386,3.224,27.355,4.895,41.609,4.895
			c40.978,0,79.606-13.766,108.768-38.762C495.575,205.704,512,171.52,512,135.014C512,98.508,495.575,64.326,465.751,38.762z
			 M356.983,240.025c-68.932,0-125.013-47.108-125.013-105.011c0-57.903,56.081-105.011,125.013-105.011
			s125.013,47.108,125.013,105.011C481.997,192.917,425.915,240.025,356.983,240.025z"/>
	</g>
</g>
<g>
	<g>
		<circle cx="356.987" cy="135.014" r="20.002"/>
	</g>
</g>
<g>
	<g>
		<circle cx="286.98" cy="135.014" r="20.002"/>
	</g>
</g>
<g>
	<g>
		<circle cx="426.995" cy="135.014" r="20.002"/>
	</g>
</g>
<g>
</g>
<g>
</g>
<g>
</g>
<g>
</g>
<g>
</g>
<g>
</g>
<g>
</g>
<g>
</g>
<g>
</g>
<g>
</g>
<g>
</g>
<g>
</g>
<g>
</g>
<g>
</g>
<g>
</g>
</svg>
