<?xml version="1.0" encoding="iso-8859-1"?>
<!-- Generator: Adobe Illustrator 19.0.0, SVG Export Plug-In . SVG Version: 6.00 Build 0)  -->
<svg version="1.1" id="Capa_1" xmlns="http://www.w3.org/2000/svg" xmlns:xlink="http://www.w3.org/1999/xlink" x="0px" y="0px"
	 viewBox="0 0 480 480" style="enable-background:new 0 0 480 480;" xml:space="preserve">
<g>
	<g>
		<path d="M456,240h-8V72c-0.026-22.08-17.92-39.974-40-40H72c-22.08,0.026-39.974,17.92-40,40v120h-8c-13.255,0-24,10.745-24,24
			v208c0,13.255,10.745,24,24,24h304c4.418,0,8-3.582,8-8c-0.026-22.08-17.92-39.974-40-40h-24v-48h96v72c0,13.255,10.745,24,24,24
			h64c13.255,0,24-10.745,24-24V264C480,250.745,469.255,240,456,240z M176,424c0,4.418-3.582,8-8,8H24c-4.418,0-8-3.582-8-8v-8h160
			V424z M176,400H16V216c0-4.418,3.582-8,8-8h144c4.418,0,8,3.582,8,8V400z M296,416c10.168,0.012,19.229,6.418,22.632,16H190.528
			c0.948-2.562,1.445-5.268,1.472-8v-8H296z M192,400v-48h16v48H192z M224,400v-48h32v48H224z M368,336H192v-48h176V336z M368,264v8
			H192v-56c-0.027-3.796-0.966-7.53-2.736-10.888c0.12-0.112,0.28-0.144,0.392-0.264l79.2-79.2c3.07-3.178,2.982-8.243-0.196-11.312
			c-3.1-2.994-8.015-2.994-11.116,0l-79.2,79.2c-0.192,0.2-0.272,0.456-0.44,0.664c-3.104-1.44-6.483-2.19-9.904-2.2H48V72
			c0-13.255,10.745-24,24-24h336c13.255,0,24,10.745,24,24v168h-40C378.745,240,368,250.745,368,264z M464,424c0,4.418-3.582,8-8,8
			h-64c-4.418,0-8-3.582-8-8v-8h80V424z M464,400h-80V264c0-4.418,3.582-8,8-8h64c4.418,0,8,3.582,8,8V400z"/>
	</g>
</g>
<g>
	<g>
		<path d="M95.592,289.376c-3.124-3.123-8.188-3.123-11.312,0l-33.936,33.936c-3.178,3.07-3.266,8.134-0.196,11.312
			c3.07,3.178,8.134,3.266,11.312,0.196c0.067-0.064,0.132-0.13,0.196-0.196l33.936-33.936
			C97.02,298.213,94.15,293.508,95.592,289.376z"/>
	</g>
</g>
<g>
	<g>
		<path d="M143.396,289.376c-3.1-2.994-8.015-2.994-11.116,0l-33.936,33.936c-3.178,3.069-3.266,8.134-0.196,11.312
			c3.069,3.178,8.134,3.266,11.312,0.196c0.067-0.064,0.132-0.13,0.196-0.196l33.936-33.936
			C146.661,297.51,146.574,292.445,143.396,289.376z"/>
	</g>
</g>
<g>
	<g>
		<path d="M317.46,114.344c-3.1-2.994-8.015-2.994-11.116,0l-79.2,79.2c-3.178,3.069-3.266,8.134-0.197,11.312
			c3.069,3.178,8.134,3.266,11.312,0.197c0.067-0.064,0.132-0.13,0.197-0.197l79.2-79.2
			C320.726,122.478,320.638,117.413,317.46,114.344z"/>
	</g>
</g>
<g>
	<g>
		<path d="M440.772,311.032c-3.1-2.995-8.016-2.995-11.116,0l-22.624,22.624c-3.178,3.07-3.266,8.134-0.196,11.312
			c3.07,3.178,8.134,3.266,11.312,0.196c0.066-0.064,0.132-0.13,0.196-0.196l22.624-22.624
			C444.038,319.166,443.95,314.102,440.772,311.032z"/>
	</g>
</g>
<g>
	<g>
		<path d="M240.16,304h-0.08c-4.418,0.022-7.982,3.622-7.96,8.04s3.622,7.982,8.04,7.96c4.418,0,8-3.582,8-8S244.578,304,240.16,304
			z"/>
	</g>
</g>
<g>
	<g>
		<path d="M256,64h-32c-4.418,0-8,3.582-8,8s3.582,8,8,8h32c4.418,0,8-3.582,8-8S260.418,64,256,64z"/>
	</g>
</g>
<g>
</g>
<g>
</g>
<g>
</g>
<g>
</g>
<g>
</g>
<g>
</g>
<g>
</g>
<g>
</g>
<g>
</g>
<g>
</g>
<g>
</g>
<g>
</g>
<g>
</g>
<g>
</g>
<g>
</g>
</svg>
