<?xml version="1.0" encoding="iso-8859-1"?>
<!-- Generator: Adobe Illustrator 19.0.0, SVG Export Plug-In . SVG Version: 6.00 Build 0)  -->
<svg version="1.1" id="Capa_1" xmlns="http://www.w3.org/2000/svg" xmlns:xlink="http://www.w3.org/1999/xlink" x="0px" y="0px"
	 viewBox="0 0 512.001 512.001" style="enable-background:new 0 0 512.001 512.001;" xml:space="preserve">
<g>
	<g>
		<g>
			<path d="M122.04,367.014l0.001,0.004C122.087,367.004,122.516,366.876,122.04,367.014z"/>
			<path d="M122.042,367.018L122.042,367.018C122.036,367.02,122.035,367.02,122.042,367.018z"/>
			<path d="M438.276,477.712l-4.468-22.438c-0.809-4.061-4.757-6.703-8.82-5.891c-4.062,0.809-6.699,4.758-5.891,8.82l4.468,22.439
				c1.686,8.473-4.799,16.357-13.426,16.357h-43.655v-34.06c0-4.143-3.357-7.5-7.5-7.5c-4.142,0-7.5,3.357-7.5,7.5v34.06h-64.419
				l-9.715-75.234l5.02-14.754c3.129,1.73,9.121,9.461,19.117,6.428c4.622-1.405,8.361-4.916,10.014-9.547
				c8.859-24.827,9.692-27.16,14.34-40.185c15.845,4.674,53.594,15.809,54.137,15.969l0.018-0.058
				c1.046,0.384,2.202,0.717,5.559,1.702c7.477,2.842,20.253,10.186,23.765,27.775l2.94,14.767c0.809,4.063,4.757,6.701,8.819,5.892
				c4.063-0.809,6.7-4.757,5.892-8.819l-2.941-14.773c-4.973-24.91-23.105-35.117-33.47-38.984
				c-0.469-0.174,3.88,1.131-66.161-19.535l-20.617-13.942v-13.102c25.829-13.449,45.105-37.511,52.254-66.344
				c2.808,1.386,5.954,2.185,9.291,2.185c10.162,0,18.666-7.223,20.654-16.803c13.456-7.315,21.924-21.354,21.924-36.938
				c0-9.05-2.858-17.578-7.889-24.573v-34.3c0-38.516-15.081-74.723-42.466-101.95C330.37,14.852,294.406,0,256.197,0
				c-31.747,0-62.131,10.283-87.665,30.197c-3.266,2.548-3.849,7.261-1.301,10.526c2.548,3.267,7.26,3.849,10.527,1.302
				C200.334,24.417,227.446,15,256.195,15c34.215,0,66.432,13.306,90.778,37.514c24.532,24.391,38.042,56.819,38.042,91.312v18.719
				c-2.142-5.597-6.592-10.045-12.189-12.185v-6.534c0-64.313-52.322-116.638-116.637-116.638S139.551,79.513,139.551,143.826v6.535
				c-5.598,2.14-10.047,6.588-12.189,12.184v-17.22c0-29.125,9.364-56.72,27.081-79.802c2.522-3.285,1.903-7.994-1.382-10.516
				c-3.287-2.523-7.994-1.903-10.516,1.383c-19.746,25.724-30.182,56.477-30.182,88.935v32.802
				c-5.03,6.994-7.888,15.522-7.888,24.572c0,15.582,8.468,29.622,21.924,36.938c1.52,7.325,6.857,13.252,13.823,15.647
				c1.992,9.295,6.64,17.953,13.588,25.24c6.615,6.939,15.085,12.198,24.594,15.459c2.307,2.709,4.757,5.307,7.347,7.779
				c6.881,6.567,14.468,12.057,22.57,16.411v13.647l-20.306,13.732c-59.701,17.606-65.782,19.409-65.974,19.465l0.006,0.02
				c-0.167,0.06-0.33,0.124-0.487,0.189l-0.018-0.048c-10.366,3.867-28.498,14.073-33.473,38.993l-14.358,72.31
				c-3.449,17.366,9.846,33.519,27.52,33.519h72.388c4.142,0,7.5-3.357,7.5-7.5s-3.358-7.5-7.5-7.5h-12.723v-34.06
				c0-4.143-3.358-7.5-7.5-7.5s-7.5,3.357-7.5,7.5v34.06h-44.664c-8.238,0-14.409-7.528-12.807-15.597l14.356-72.303
				c3.512-17.594,16.291-24.938,23.768-27.778c9.591-2.829,43.822-12.927,59.871-17.661c3.396,9.517,11.029,30.907,14.357,40.232
				c1.611,4.513,5.181,8.079,10.015,9.547c8.791,2.673,13.521-2.528,19.164-6.464l5.054,14.928l-9.696,75.096h-16.696
				c-4.142,0-7.5,3.357-7.5,7.5s3.358,7.5,7.5,7.5c9.625,0,190.935,0,201.521,0C428.252,512,441.805,495.441,438.276,477.712z
				 M386.42,185.107c0.152,0.212,0.315,0.415,0.487,0.609c3.796,4.705,5.996,10.639,5.996,16.983c0,6.621-2.376,12.81-6.483,17.605
				V185.107z M125.471,185.715c0.172-0.194,0.334-0.396,0.485-0.607v35.196c-4.106-4.796-6.482-10.983-6.482-17.604
				C119.474,196.356,121.675,190.422,125.471,185.715z M153.147,235.347c0,3.36-2.734,6.095-6.094,6.095
				c-3.361,0-6.095-2.734-6.095-6.095v-0.645v-64.003v-0.645c0-3.36,2.734-6.095,6.095-6.095c3.36,0,6.094,2.734,6.094,6.095
				V235.347z M312.143,357.465c-1.335,3.74-13.158,36.871-14.77,41.388c-0.084,0.242-0.372,0.331-0.586,0.178l-13.701-10.163
				l17.168-39.443L312.143,357.465z M359.232,170.053c0-3.36,2.733-6.095,6.094-6.095c3.36,0,6.095,2.734,6.095,6.095v0.645v64.003
				v0.645c0,3.36-2.734,6.095-6.095,6.095c-3.36,0-6.094-2.734-6.094-6.095V170.053z M155.532,254.648
				c0.383-0.169,0.757-0.353,1.128-0.544c0.847,3.269,1.854,6.493,3.009,9.661C157.855,260.878,156.465,257.82,155.532,254.648z
				 M167.165,154.282c-1.671,0.161-3.334,0.567-4.899,1.196c-2.143-2.236-4.77-3.993-7.714-5.118v-6.534
				c0-56.043,45.594-101.638,101.638-101.638c56.042,0,101.637,45.594,101.637,101.638v6.535c-1.874,0.717-3.616,1.691-5.191,2.883
				c-0.059-0.056-0.116-0.108-0.15-0.139c-0.128-0.114-0.259-0.224-0.395-0.329l-32.355-25.192
				c-7.395-5.756-16.435-7.201-24.789-3.955c-22.141,8.559-78.837,28.673-127.017,30.585
				C167.672,154.223,167.417,154.246,167.165,154.282z M204.249,299.811h21.976c3.033,7.935,10.704,13.595,19.692,13.595h19.052
				c11.632,0,21.095-9.463,21.095-21.095s-9.463-21.095-21.095-21.095h-19.052c-8.988,0-16.659,5.66-19.692,13.595h-24.489
				c-5.051,0-9.955-0.645-14.587-1.85c-12.085-15.638-18.836-35.072-18.836-55.006v-58.667c0.151-0.036,0.302-0.064,0.436-0.081
				c0.17-0.006,0.338-0.018,0.505-0.034c50.258-2.171,108.373-22.766,131.113-31.557c3.37-1.309,6.979-0.668,10.155,1.806
				l32.014,24.927c0.28,0.347,1.53,2.064,1.53,4.874v60.089c0,49.006-39.754,88.252-88.599,87.869
				C236.488,317.019,218.735,310.69,204.249,299.811z M239.823,292.311c0-3.36,2.734-6.095,6.095-6.095h19.052
				c3.36,0,6.095,2.734,6.095,6.095c0,3.36-2.734,6.095-6.095,6.095h-19.052C242.557,298.405,239.823,295.671,239.823,292.311z
				 M215.491,399.029c-0.207,0.159-0.498,0.065-0.586-0.177c-3.581-10.034-11.442-32.064-14.769-41.388l11.924-8.064
				c28.973,65.532-0.824-1.996,17.202,39.415L215.491,399.029z M223.322,335.756C223.32,335.752,223.32,335.753,223.322,335.756
				L223.322,335.756z M223.49,336.157c-0.01-0.024-0.056-0.134-0.169-0.403v-9.024c10.474,3.593,21.543,5.456,32.877,5.456
				c10.771,0,21.858-1.686,32.581-5.245v9.233l-19.943,47.664H243.51C227.978,346.846,224.244,337.952,223.49,336.157z
				 M269.305,398.84l-4.987,14.659h-16.315l-4.963-14.659H269.305z M240.439,497l8.844-68.501h13.81L271.94,497H240.439z"/>
		</g>
	</g>
</g>
<g>
</g>
<g>
</g>
<g>
</g>
<g>
</g>
<g>
</g>
<g>
</g>
<g>
</g>
<g>
</g>
<g>
</g>
<g>
</g>
<g>
</g>
<g>
</g>
<g>
</g>
<g>
</g>
<g>
</g>
</svg>
